<svg xmlns="http://www.w3.org/2000/svg" viewBox="0 0 512 512">
  <!-- Symmiopedia operator mark: single jigsaw piece, dark-gray outline,
       white fill, bold serif S. Zero chroma (DESIGN.MD hard rules). -->
  <g transform="rotate(-8 256 256)">
    <path d="M 116 116
             H 240
             A 16 16 0 0 0 224 94
             A 38 38 0 1 1 288 94
             A 16 16 0 0 0 272 116
             H 396
             V 214
             A 18 18 0 0 1 369 230
             A 30 30 0 1 0 369 282
             A 18 18 0 0 1 396 298
             V 396
             H 272
             A 16 16 0 0 0 288 418
             A 38 38 0 1 1 224 418
             A 16 16 0 0 0 240 396
             H 116
             V 298
             A 18 18 0 0 1 143 282
             A 30 30 0 1 0 143 230
             A 18 18 0 0 1 116 214
             Z"
          fill="#ffffff" stroke="#4a4e54" stroke-width="15"
          stroke-linejoin="round" stroke-linecap="round" />
  </g>
  <text x="256" y="258" text-anchor="middle" dominant-baseline="central"
        font-family="'Times New Roman', Georgia, serif" font-weight="700"
        font-size="160" fill="#26282b">S</text>
</svg>
